<mxfile host="65bd71144e" modified="2021-11-15T11:25:51.560Z" agent="5.0 (Windows NT 10.0; Win64; x64) AppleWebKit/537.36 (KHTML, like Gecko) Code/1.62.2 Chrome/91.0.4472.164 Electron/13.5.2 Safari/537.36" etag="sOFe3m-z2N9CC_tQLgOV" version="15.7.3" type="embed">
    <diagram id="1cLhjlTDrsvusgPYbPh7" name="ページ1">
        <mxGraphModel dx="495" dy="227" grid="1" gridSize="10" guides="1" tooltips="1" connect="1" arrows="1" fold="1" page="1" pageScale="1" pageWidth="827" pageHeight="1169" math="0" shadow="0">
            <root>
                <mxCell id="0"/>
                <mxCell id="1" parent="0"/>
                <mxCell id="2" value="" style="rounded=0;whiteSpace=wrap;html=1;fillColor=#f9f7ed;strokeColor=#36393d;" parent="1" vertex="1">
                    <mxGeometry x="120" y="40" width="320" height="480" as="geometry"/>
                </mxCell>
                <mxCell id="3" value="" style="rounded=0;whiteSpace=wrap;html=1;fillColor=#cce5ff;strokeColor=#36393d;" parent="1" vertex="1">
                    <mxGeometry x="130" y="70" width="300" height="30" as="geometry"/>
                </mxCell>
                <mxCell id="4" value="" style="rounded=0;whiteSpace=wrap;html=1;fillColor=#0050ef;strokeColor=#001DBC;fontColor=#ffffff;" parent="1" vertex="1">
                    <mxGeometry x="130" y="70" width="70" height="30" as="geometry"/>
                </mxCell>
                <mxCell id="5" value="" style="rounded=1;whiteSpace=wrap;html=1;fillColor=#e51400;strokeColor=#B20000;fontColor=#ffffff;" parent="1" vertex="1">
                    <mxGeometry x="390" y="70" width="10" height="30" as="geometry"/>
                </mxCell>
                <mxCell id="6" value="" style="rounded=0;whiteSpace=wrap;html=1;fillColor=#cce5ff;strokeColor=#36393d;" parent="1" vertex="1">
                    <mxGeometry x="130" y="120" width="300" height="30" as="geometry"/>
                </mxCell>
                <mxCell id="7" value="" style="rounded=0;whiteSpace=wrap;html=1;fillColor=#0050ef;strokeColor=#001DBC;fontColor=#ffffff;" parent="1" vertex="1">
                    <mxGeometry x="130" y="120" width="70" height="30" as="geometry"/>
                </mxCell>
                <mxCell id="8" value="テンション／ドラグ" style="text;html=1;strokeColor=none;fillColor=none;align=left;verticalAlign=middle;whiteSpace=wrap;rounded=0;fontColor=#000000;" parent="1" vertex="1">
                    <mxGeometry x="130" y="50" width="120" height="20" as="geometry"/>
                </mxCell>
                <mxCell id="9" value="スピード" style="text;html=1;strokeColor=none;fillColor=none;align=left;verticalAlign=middle;whiteSpace=wrap;rounded=0;fontColor=#000000;" parent="1" vertex="1">
                    <mxGeometry x="130" y="100" width="120" height="20" as="geometry"/>
                </mxCell>
                <mxCell id="10" value="" style="rounded=0;whiteSpace=wrap;html=1;fontColor=#ffffff;align=left;fillColor=#000033;strokeColor=#001DBC;gradientDirection=north;gradientColor=#0000FF;" parent="1" vertex="1">
                    <mxGeometry x="130" y="200" width="300" height="270" as="geometry"/>
                </mxCell>
                <mxCell id="17" value="" style="ellipse;whiteSpace=wrap;html=1;aspect=fixed;fontColor=#000000;align=center;fillColor=#FFFFCC;strokeColor=none;" parent="1" vertex="1">
                    <mxGeometry x="325" y="220" width="30" height="30" as="geometry"/>
                </mxCell>
                <mxCell id="18" value="" style="ellipse;whiteSpace=wrap;html=1;aspect=fixed;fontColor=#000000;align=center;fillColor=#FFFF00;strokeColor=none;" parent="1" vertex="1">
                    <mxGeometry x="330" y="225" width="20" height="20" as="geometry"/>
                </mxCell>
                <mxCell id="25" value="" style="ellipse;whiteSpace=wrap;html=1;fillColor=#FFFFFF;" parent="1" vertex="1">
                    <mxGeometry x="300" y="370" width="15" height="10" as="geometry"/>
                </mxCell>
                <mxCell id="26" value="" style="ellipse;whiteSpace=wrap;html=1;fillColor=#FFFFFF;" parent="1" vertex="1">
                    <mxGeometry x="375" y="350" width="15" height="10" as="geometry"/>
                </mxCell>
                <mxCell id="27" value="" style="ellipse;whiteSpace=wrap;html=1;fillColor=#FFFFFF;" parent="1" vertex="1">
                    <mxGeometry x="355" y="380" width="15" height="10" as="geometry"/>
                </mxCell>
                <mxCell id="28" value="" style="rounded=0;whiteSpace=wrap;html=1;align=left;fillColor=#dae8fc;strokeColor=#6c8ebf;gradientColor=#7ea6e0;" parent="1" vertex="1">
                    <mxGeometry x="130" y="160" width="300" height="40" as="geometry"/>
                </mxCell>
                <mxCell id="29" value="" style="shape=trapezoid;perimeter=trapezoidPerimeter;whiteSpace=wrap;html=1;fixedSize=1;fillColor=#f8cecc;rotation=-180;gradientColor=#ea6b66;strokeColor=#b85450;size=10;" parent="1" vertex="1">
                    <mxGeometry x="240" y="180" width="40" height="20" as="geometry"/>
                </mxCell>
                <mxCell id="31" value="Actor" style="shape=umlActor;verticalLabelPosition=bottom;verticalAlign=top;html=1;outlineConnect=0;fontSize=12;fontColor=#000000;strokeColor=#000000;strokeWidth=3;fillColor=#FFFFFF;" parent="1" vertex="1">
                    <mxGeometry x="395" y="170" width="30" height="60" as="geometry"/>
                </mxCell>
                <mxCell id="32" value="" style="rounded=0;whiteSpace=wrap;html=1;align=left;fillColor=#9C866B;strokeColor=#b46504;gradientDirection=north;gradientColor=#ffffff;" vertex="1" parent="1">
                    <mxGeometry x="130" y="460" width="300" height="50" as="geometry"/>
                </mxCell>
                <mxCell id="30" value="0.0 / 20.0m" style="rounded=0;whiteSpace=wrap;html=1;fillColor=#FFFFFF;strokeColor=#FF0000;strokeWidth=3;fontSize=12;fontColor=#000000;" parent="1" vertex="1">
                    <mxGeometry x="340" y="470" width="85" height="30" as="geometry"/>
                </mxCell>
                <mxCell id="22" value="" style="rounded=0;whiteSpace=wrap;html=1;fillColor=#1A1A1A;" parent="1" vertex="1">
                    <mxGeometry x="175" y="180" width="10" height="320" as="geometry"/>
                </mxCell>
                <mxCell id="20" value="" style="shape=hexagon;perimeter=hexagonPerimeter2;whiteSpace=wrap;html=1;fixedSize=1;fillColor=#4D4D4D;" parent="1" vertex="1">
                    <mxGeometry x="140" y="400" width="80" height="80" as="geometry"/>
                </mxCell>
                <mxCell id="21" value="" style="rounded=1;whiteSpace=wrap;html=1;fillColor=#FFFFFF;" parent="1" vertex="1">
                    <mxGeometry x="157.5" y="420" width="45" height="40" as="geometry"/>
                </mxCell>
                <mxCell id="11" value="クラッチ" style="rounded=1;whiteSpace=wrap;html=1;align=center;" parent="1" vertex="1">
                    <mxGeometry x="155" y="463.33" width="50" height="16.67" as="geometry"/>
                </mxCell>
            </root>
        </mxGraphModel>
    </diagram>
</mxfile>